<svg xmlns="http://www.w3.org/2000/svg" width="114.882" height="99.953" viewBox="0 0 114.882 99.953">
  <g id="Group_11" data-name="Group 11" transform="translate(-2.5 -5.554)">
    <g id="Group_9" data-name="Group 9" transform="translate(2.5 5.554)">
      <g id="Group_4" data-name="Group 4" transform="translate(0 7.138)">
        <g id="Group_3" data-name="Group 3">
          <path id="Path_20" data-name="Path 20" d="M64.876,92.988C42.723,92.988,2.5,52.765,2.5,30.612c0-5.627,3.283-14.641,10.484-21.129a4.115,4.115,0,0,1,5.536.125L31.683,22.771a4,4,0,0,1,.032,5.619A32.538,32.538,0,0,1,27.285,32c-1.779,1.271-3.314,2.369-3.314,3.363,0,12.5,23.654,36.159,36.156,36.159,1.009,0,2.144-1.493,3.456-3.224a32.563,32.563,0,0,1,3.8-4.383,4.1,4.1,0,0,1,5.544.1L85.88,76.968A4.022,4.022,0,0,1,86,82.5C79.515,89.705,70.5,92.988,64.876,92.988ZM15.694,10.882a1.6,1.6,0,0,0-1.073.416C8.266,17.019,4.944,25.345,4.944,30.612c0,20.725,39.207,59.932,59.932,59.932,5.265,0,13.59-3.324,19.312-9.677a1.58,1.58,0,0,0-.037-2.171L71.195,65.742a1.6,1.6,0,0,0-2.156-.034,29.943,29.943,0,0,0-3.508,4.067c-1.709,2.246-3.182,4.187-5.4,4.187-14.069,0-38.6-24.533-38.6-38.6,0-2.251,2.009-3.688,4.336-5.351a30.766,30.766,0,0,0,4.111-3.334,1.544,1.544,0,0,0-.02-2.175L16.792,11.336A1.536,1.536,0,0,0,15.694,10.882Z" transform="translate(-2.5 -8.474)" fill="#fff"/>
        </g>
      </g>
      <g id="Group_8" data-name="Group 8" transform="translate(44.423)">
        <g id="Group_5" data-name="Group 5" transform="translate(0 26.257)">
          <path id="Path_21" data-name="Path 21" d="M38.217,35.058a1.221,1.221,0,0,1-1.222-1.222,15.114,15.114,0,0,0-15.1-15.1,1.222,1.222,0,1,1,0-2.444,17.562,17.562,0,0,1,17.543,17.54A1.223,1.223,0,0,1,38.217,35.058Z" transform="translate(-20.674 -16.296)" fill="#fff"/>
        </g>
        <g id="Group_6" data-name="Group 6" transform="translate(1.838 13.062)">
          <path id="Path_22" data-name="Path 22" d="M50.32,41.019A1.223,1.223,0,0,1,49.1,39.8a26.482,26.482,0,0,0-26.45-26.455,1.222,1.222,0,0,1,0-2.444A28.93,28.93,0,0,1,51.542,39.8,1.223,1.223,0,0,1,50.32,41.019Z" transform="translate(-21.426 -10.898)" fill="#fff"/>
        </g>
        <g id="Group_7" data-name="Group 7" transform="translate(3.872)">
          <path id="Path_23" data-name="Path 23" d="M62.183,46.7a1.221,1.221,0,0,1-1.222-1.222A37.525,37.525,0,0,0,23.48,8a1.222,1.222,0,1,1,0-2.444A39.971,39.971,0,0,1,63.405,45.482,1.223,1.223,0,0,1,62.183,46.7Z" transform="translate(-22.258 -5.554)" fill="#fff"/>
        </g>
      </g>
    </g>
    <g id="Group_10" data-name="Group 10" transform="translate(77.88 82.232)">
      <path id="Path_24" data-name="Path 24" d="M58.11,60.2A22.84,22.84,0,0,1,43.346,54.78l-9.574-8.118A1.222,1.222,0,1,1,35.351,44.8l9.574,8.118a20.4,20.4,0,0,0,13.185,4.84A12.3,12.3,0,0,0,70.4,45.467V38.146a1.222,1.222,0,1,1,2.444,0v7.321A14.749,14.749,0,0,1,58.11,60.2Z" transform="translate(-33.339 -36.924)" fill="#fff"/>
    </g>
  </g>
</svg>
