<svg xmlns="http://www.w3.org/2000/svg" width="106.702" height="106.688" viewBox="0 0 106.702 106.688">
  <g id="Group_2" data-name="Group 2" transform="translate(-10 -10.011)">
    <path id="Path_15" data-name="Path 15" d="M78.256,40.559a38.936,38.936,0,0,0-8.392.93A29.363,29.363,0,0,0,61.3,18.865a30.186,30.186,0,0,0-42.334-.375,29.449,29.449,0,0,0-.38,41.942,29.933,29.933,0,0,0,22,8.874,41.872,41.872,0,0,0-.578,13.228,44.845,44.845,0,0,0,4.1,13.79c1.806,6.035-9.5,10.57-9.613,10.616A1.335,1.335,0,0,0,34,109.088c8.141,8.759,19.26,2.765,22.337.826A38.214,38.214,0,1,0,78.256,40.559ZM20.478,58.553A26.785,26.785,0,0,1,20.825,20.4a27.51,27.51,0,0,1,38.581.344,26.64,26.64,0,0,1,.216,37.587c-.184.189-.371.377-.562.562a1.264,1.264,0,0,0-.1.108,5.312,5.312,0,0,0-1.342,4.742,7.122,7.122,0,0,0,2.736,3.8c-6.745,2.075-10.482-1.678-10.65-1.851a1.333,1.333,0,0,0-.971-.419,1.368,1.368,0,0,0-.405.063A27.355,27.355,0,0,1,20.478,58.553Zm57.778,55.478a35.756,35.756,0,0,1-21.11-6.816,1.335,1.335,0,0,0-1.578.009c-.108.081-10.429,7.587-18.218,1.347,3.711-1.839,11.38-6.538,9.268-13.147a1.274,1.274,0,0,0-.073-.183,42.037,42.037,0,0,1-3.888-13.024A39.293,39.293,0,0,1,43.386,69.1a30.546,30.546,0,0,0,5.018-1,12.663,12.663,0,0,0,8.008,2.745A17.474,17.474,0,0,0,63.923,69a1.335,1.335,0,0,0-.036-2.426C63,66.18,60.61,64.8,60.214,63.121a2.733,2.733,0,0,1,.76-2.366c.188-.185.376-.372.562-.562A29.47,29.47,0,0,0,69.55,44.288a36.287,36.287,0,0,1,8.706-1.062,35.4,35.4,0,1,1,0,70.8Z" transform="translate(0 0)" fill="#fff"/>
    <path id="Path_16" data-name="Path 16" d="M23.783,29.592H47.791a1.334,1.334,0,0,0,0-2.668H23.783a1.334,1.334,0,0,0,0,2.668Z" transform="translate(4.155 5.645)" fill="#fff"/>
    <path id="Path_17" data-name="Path 17" d="M49.125,37.822a1.333,1.333,0,0,0-1.334-1.334H23.783a1.334,1.334,0,0,0,0,2.668H47.791A1.333,1.333,0,0,0,49.125,37.822Z" transform="translate(4.155 8.838)" fill="#fff"/>
    <path id="Path_18" data-name="Path 18" d="M78.233,57.09H51.959a1.334,1.334,0,1,0,0,2.668H78.233a1.334,1.334,0,1,0,0-2.668Z" transform="translate(13.56 15.714)" fill="#fff"/>
    <path id="Path_19" data-name="Path 19" d="M78.233,66.655H51.959a1.334,1.334,0,1,0,0,2.668H78.233a1.334,1.334,0,1,0,0-2.668Z" transform="translate(13.56 18.907)" fill="#fff"/>
  </g>
</svg>
