<svg xmlns="http://www.w3.org/2000/svg" width="105.096" height="85.543" viewBox="0 0 105.096 85.543">
  <g id="Group_19" data-name="Group 19" transform="translate(-7 -15)">
    <path id="Path_28" data-name="Path 28" d="M7,16.222v83.1a1.269,1.269,0,0,0,1.222,1.222H110.874a1.269,1.269,0,0,0,1.222-1.222v-83.1A1.269,1.269,0,0,0,110.874,15H8.222A1.233,1.233,0,0,0,7,16.222Zm2.444,1.222H109.652v14.7H9.444Zm22,3.666a3.666,3.666,0,1,0,3.666,3.666A3.666,3.666,0,0,0,31.441,21.11Zm56.214,0a3.666,3.666,0,1,0,3.666,3.666A3.666,3.666,0,0,0,87.655,21.11ZM9.444,34.591H109.652V98.1H9.444Zm9.548,8.516A1.262,1.262,0,0,0,18,44.329V66.211a.9.9,0,0,0,0,.115,1.062,1.062,0,0,0,0,.153V88.323a1.269,1.269,0,0,0,1.222,1.222H74.212a1.269,1.269,0,0,0,1.222-1.222V67.548H99.875a1.269,1.269,0,0,0,1.222-1.222v-22a1.262,1.262,0,0,0-.992-1.222,1.2,1.2,0,0,0-.23,0H19.22A1.19,1.19,0,0,0,18.992,43.107Zm1.451,2.444H43.661V65.1H20.442Zm25.663,0H72.99V65.1H46.105Zm29.329,0H98.653V65.1H75.434Zm-54.992,22H43.661V87.1H20.442Zm25.663,0H72.99V87.1H46.105Z" transform="translate(0)" fill="#fff"/>
  </g>
</svg>
