<svg xmlns="http://www.w3.org/2000/svg" width="286.129" height="32.928" viewBox="0 0 286.129 32.928">
  <g id="Group_1" data-name="Group 1" transform="translate(-9 -11.857)">
    <path id="Path_1" data-name="Path 1" d="M90.714,27.451a6.246,6.246,0,0,0-.856-.5c-.251-.122-.472-.212-.639-.289a.247.247,0,0,0-.366.248c.251,4.987-1.409,8.047-4.519,10.657-2.592,2.174-6.127,4.1-11.994,5.044h-.03q-1.083.174-2.277.3a22.1,22.1,0,0,1-6.7-.3c-5.625-1.208-9.142-4.644-6.116-7.334a.259.259,0,0,0-.324-.4c-3.809,2.79-2.111,4.927-.248,6.582a16.13,16.13,0,0,0,1.716,1.17c5.751,3.056,17.3,2.671,25.918.153.187-.055.374-.112.559-.163v0C94.02,39.783,100.234,34.172,90.714,27.451Z" transform="translate(-22.953 -7.436)" fill="#004a80"/>
    <path id="Path_2" data-name="Path 2" d="M65.993,12.729c8.581,2.417,12.917,4.734,15.724,7.442,2.628,2.536,4.03,5.34,1.765,8.866-2.778,4.324-15.094,5.857-19.611,1.752a.258.258,0,0,0-.367.363c2.682,3.026,6.769,3.288,10.395,3.28,19.567-.046,25.233-24.267-5.845-22.48a14.771,14.771,0,0,0-2.035.274A.254.254,0,0,0,65.993,12.729Z" transform="translate(-27.391 0)" fill="#004a80"/>
    <path id="Path_3" data-name="Path 3" d="M17.417,23.418c8.318-2.644,14.373-3.444,20.362-3.35,5.606.087,11.213.881,16.116,3.75,5.467,3.2,2.621,9.432-6.858,9.408a.259.259,0,1,0-.013.517c6.258.3,8.764-1.372,10.617-3.054,5.007-4.548-2.419-10.539-11.676-13.38-9.5-2.914-21.849-2.941-28.271,4.659a2.815,2.815,0,0,0-.428.668c-.08.178-.121.325-.167.441A.247.247,0,0,0,17.417,23.418Z" transform="translate(-4.064 -1.832)" fill="#004a80"/>
    <path id="Path_4" data-name="Path 4" d="M20.142,34.032c2.915-2.447,7.022-4.573,14.3-5.347,9.363-.994,16.89,4.012,12.814,7.636a.258.258,0,0,0,.324.4c3.81-2.791,2.111-4.926.248-6.582C43.01,25.856,29.786,26.014,20.2,28.818,11.386,31.392,5.01,36.5,11.935,42.7h0a19.938,19.938,0,0,0,1.827,1.443,6.649,6.649,0,0,0,.841.54,4.155,4.155,0,0,0,.639.287.276.276,0,0,0,.381-.285,17.7,17.7,0,0,1,.005-1.986h-.014l.014-.009A11.506,11.506,0,0,1,20.142,34.032Z" transform="translate(0 -7.522)" fill="#004a80"/>
    <path id="Path_5" data-name="Path 5" d="M85.727,48.062c-.114.035-.229.073-.342.115h-.027a60.5,60.5,0,0,1-19.993,3.235c-5.245-.082-10.491-.783-15.161-3.224h0c-.319-.167-.635-.342-.949-.526-5.467-3.2-2.621-9.432,6.858-9.409a.258.258,0,1,0,.013-.516c-6.258-.3-8.764,1.371-10.617,3.054-2.524,2.294-1.889,4.953.548,7.4h.008c2.4,2.394,6.534,4.574,11.119,5.982,9.5,2.915,21.849,2.941,28.272-4.659a2.814,2.814,0,0,0,.428-.668c.079-.178.121-.325.167-.441a.285.285,0,0,0,0-.215A.249.249,0,0,0,85.727,48.062Z" transform="translate(-17.559 -13.006)" fill="#004a80"/>
    <path id="Path_6" data-name="Path 6" d="M53,54.4c-8.581-2.418-12.918-4.734-15.725-7.442a15.123,15.123,0,0,1-1.2-1.289v0c-1.794-2.2-2.453-4.636-.566-7.574,2.779-4.324,15.094-5.857,19.611-1.753a.258.258,0,0,0,.368-.363c-2.681-3.026-6.77-3.288-10.4-3.28-10.369.024-16.834,6.838-16,12.973.744,5.441,7.234,10.348,21.842,9.509A14.949,14.949,0,0,0,52.97,54.9.254.254,0,0,0,53,54.4Z" transform="translate(-10.076 -10.487)" fill="#004a80"/>
    <path id="Path_7" data-name="Path 7" d="M164.289,36.345a5.51,5.51,0,0,1-5.461,3.514c-3.6,0-5.122-2.042-4.316-5.825s3.2-5.855,6.8-5.855c2.823,0,4.168,1.441,3.87,4.114h9.609c1.014-6.186-3.229-9.67-12.3-9.67-9.67,0-15.424,3.9-17.019,11.411s2.5,11.41,12.168,11.41c8.648,0,14.214-3.153,16.348-9.1Z" transform="translate(-68.511 -5.417)" fill="#004a80"/>
    <path id="Path_8" data-name="Path 8" d="M478.242,22.622c-9.669,0-15.423,3.9-17.019,11.411s2.5,11.41,12.169,11.41,15.424-3.9,17.019-11.41S487.911,22.622,478.242,22.622Zm2.82,11.411c-.8,3.784-3.191,5.825-6.793,5.825s-5.122-2.042-4.317-5.825,3.2-5.855,6.8-5.855S481.865,30.25,481.061,34.033Z" transform="translate(-227.411 -5.417)" fill="#004a80"/>
    <path id="Path_9" data-name="Path 9" d="M540.235,23.772l-2.653,12.492-5.723-12.492h-9.939l-4.608,21.679h7.927l2.7-12.7,6.4,12.7h9.43l4.609-21.679Z" transform="translate(-255.807 -5.996)" fill="#004a80"/>
    <path id="Path_10" data-name="Path 10" d="M434.383,29.6c.447-2.1-.073-3.752-1.49-4.713-1.2-.841-3.518-1.111-6.94-1.111H409.437l-4.608,21.679h8.527l1.4-6.6h5.014c2.072,0,2.737.54,2.573,2.161-.179,1.831-.811,3.393-.373,4.443h9.337l.07-.329c-.912-.512-.536-2.284-.022-5.406.4-2.462.389-3.664-1.719-4.623A7.411,7.411,0,0,0,434.383,29.6Zm-9.611,1.562c-.332,1.561-1.593,1.983-3.9,1.983h-4.894l.823-3.874h4.684C423.944,29.267,425.124,29.507,424.773,31.158Z" transform="translate(-199.2 -5.996)" fill="#004a80"/>
    <path id="Path_11" data-name="Path 11" d="M334.215,23.193H310.1l-.658,3.1c-1.31-2.543-5.2-3.667-11.735-3.667-8.468,0-12.92,2.013-13.973,6.967-.772,3.633,1.4,5.825,6.465,6.455l6.111.78c1.961.24,2.836.782,2.638,1.713-.223,1.05-1.473,1.561-3.725,1.561-2.312,0-3.487-.691-3.395-1.831H281.653a6.7,6.7,0,0,0-.119,1.02H266.467l.606-2.853h11.8l1.136-5.345h-11.8l.549-2.582h14.563l1.13-5.315H261.48l-4.608,21.679h23.691l1-4.706c.389,3.42,4.14,5.367,11.156,5.367,9.969,0,15.228-2.282,16.384-7.717.759-3.572-1.172-5.646-5.8-6.337l-7.426-1.08c-2.1-.3-3.092-.57-2.888-1.531.179-.841,1.358-1.442,3.339-1.442,2.613,0,3.87.72,3.793,2.072h9.76a7.439,7.439,0,0,0,.066-.811h6.826l-3.441,16.185h8.409l3.44-16.185h7.869Z" transform="translate(-124.741 -5.417)" fill="#004a80"/>
    <path id="Path_12" data-name="Path 12" d="M231.226,29.6c.447-2.1-.074-3.752-1.491-4.713-1.2-.841-3.517-1.111-6.94-1.111H206.279l-4.607,21.679H210.2l1.405-6.6h5.014c2.071,0,2.737.54,2.573,2.161-.179,1.831-.811,3.393-.374,4.443h9.338l.071-.329c-.912-.512-.536-2.284-.022-5.406.4-2.462.388-3.664-1.719-4.623A7.408,7.408,0,0,0,231.226,29.6Zm-9.611,1.562c-.332,1.561-1.593,1.983-3.905,1.983h-4.893l.823-3.874h4.685C220.786,29.267,221.967,29.507,221.616,31.158Z" transform="translate(-96.962 -5.996)" fill="#004a80"/>
    <path id="Path_13" data-name="Path 13" d="M579.966,60.131c0-.583-.346-.841-1.043-.841H577.8v2.957h.447V60.966h.515l.779,1.281h.5l-.841-1.3A.77.77,0,0,0,579.966,60.131Zm-1.721.454v-.914h.611c.312,0,.644.068.644.433,0,.455-.34.481-.72.481Z" transform="translate(-286.247 -23.87)" fill="#004a80"/>
    <path id="Path_14" data-name="Path 14" d="M577.151,57.11a2.562,2.562,0,1,0,2.589,2.555A2.559,2.559,0,0,0,577.151,57.11Zm0,4.7a2.137,2.137,0,1,1,2.074-2.143A2.073,2.073,0,0,1,577.151,61.808Z" transform="translate(-284.611 -22.773)" fill="#004a80"/>
  </g>
</svg>
